<svg width="22" height="22" fill="none" xmlns="http://www.w3.org/2000/svg">
    <path
        d="M1.342 7.973a2.667 2.667 0 0 1 2.674-2.66l14 .04a2.667 2.667 0 0 1 2.66 2.675l-.03 9.999a2.667 2.667 0 0 1-2.674 2.66l-14-.04a2.667 2.667 0 0 1-2.659-2.675l.029-9.999ZM6.684 4.988l.003-1A2.666 2.666 0 0 1 9.36 1.329l3.333.009a2.667 2.667 0 0 1 2.66 2.674l-.004 1M1.662 12.64l18.666.053M6.668 10.654l-.01 3.334M15.334 10.679l-.01 3.333"
        stroke="#BDE9D2" stroke-width="2" stroke-linecap="round" stroke-linejoin="round" />
</svg>