<svg width="22" height="22" fill="none" xmlns="http://www.w3.org/2000/svg">
    <path
        d="M17.333 1.333h2a1.334 1.334 0 0 1 1.334 1.334V6m-3.334-4.667h-12a4 4 0 0 0-4 4v11.334a3.998 3.998 0 0 0 4 4h12m0-19.334V6m3.334 0h-3.334m3.334 0v5m-3.334 9.667h2a1.334 1.334 0 0 0 1.334-1.334V16m-3.334 4.667V16m0-10v5m3.334 5h-3.334m3.334 0v-5m-3.334 5v-5m0 0h3.334m-14 4.333s.9-2 3-2 3 2 3 2m-1.334-7A1.669 1.669 0 0 1 9.667 10 1.669 1.669 0 0 1 8 8.333a1.665 1.665 0 0 1 1.667-1.666 1.665 1.665 0 0 1 1.666 1.666Z"
        stroke="#BDE9D2" stroke-width="2" stroke-linecap="round" stroke-linejoin="round" />
</svg>