<svg width="220" height="32" fill="none" xmlns="http://www.w3.org/2000/svg">
    <path
        d="M17.422 20.406A1.994 1.994 0 0 1 16 21a1.992 1.992 0 0 1-1.422-.594l-3.992-3.992a2 2 0 1 1 2.828-2.828L16 16.172 26.586 5.586l.813-.813A15.951 15.951 0 0 0 16 0C7.163 0 0 7.163 0 16s7.163 16 16 16 16-7.163 16-16c0-2.922-.784-5.662-2.153-8.019L17.422 20.406Z"
        fill="#26C281" />
    <path
        d="M26.586 5.586 16 16.172l-2.586-2.586a2 2 0 1 0-2.828 2.828l3.992 3.992c.362.366.865.594 1.422.594.557 0 1.059-.227 1.422-.594L29.847 7.981a16.032 16.032 0 0 0-2.449-3.207l-.813.813.001-.001Z"
        fill="#fff" />
    <path
        d="M40 17.836c0-4.647 3.48-8.168 8.12-8.168 3.033 0 5.592 1.528 6.959 3.885l-2.886 1.803a4.6 4.6 0 0 0-4.074-2.385c-2.678 0-4.7 2.11-4.7 4.86 0 2.75 2.022 4.866 4.7 4.866a4.595 4.595 0 0 0 4.074-2.386l2.886 1.803C53.712 24.471 51.153 26 48.119 26 43.48 26 40 22.484 40 17.836ZM56.924 17.836c0-4.647 3.48-8.163 8.12-8.163 4.64 0 8.119 3.516 8.119 8.163 0 4.648-3.507 8.164-8.12 8.164-4.611 0-8.119-3.516-8.119-8.164Zm12.791 0c0-2.754-1.993-4.86-4.671-4.86-2.68 0-4.7 2.11-4.7 4.86 0 2.75 2.02 4.865 4.7 4.865 2.678 0 4.671-2.11 4.671-4.865ZM76.228 19.426v-9.39h3.333v8.931c0 2.234 1.486 3.73 3.686 3.73s3.66-1.5 3.66-3.73v-8.93h3.332v9.39c0 3.975-2.794 6.573-6.992 6.573-4.197 0-7.019-2.598-7.019-6.574ZM102.846 9.79v3.517h-.566c-2.974 0-4.727 1.865-4.727 4.742v7.587H94.22v-15.6h3.332v2.296c1.132-1.59 2.734-2.536 4.727-2.536h.566V9.79ZM110.698 13.156v7.368c0 1.467.806 2.173 2.2 2.173.834 0 1.487-.246 2.081-.55v3.214c-.833.43-1.666.644-2.766.644-3.273 0-4.847-1.898-4.847-4.922v-7.927h-2.559v-3.12h2.559V6h3.332v4.037h4.286v3.119h-4.286ZM116.852 17.836c0-4.647 3.48-8.163 8.119-8.163 3.034 0 5.593 1.528 6.96 3.885l-2.886 1.803a4.6 4.6 0 0 0-4.074-2.385c-2.678 0-4.699 2.11-4.699 4.86 0 2.75 2.021 4.865 4.699 4.865a4.596 4.596 0 0 0 4.074-2.385l2.886 1.803c-1.367 2.357-3.926 3.886-6.96 3.886-4.639 0-8.119-3.517-8.119-8.164v-.005ZM133.777 17.836c0-4.647 3.479-8.163 8.119-8.163 4.639 0 8.119 3.516 8.119 8.163 0 4.648-3.507 8.164-8.119 8.164s-8.119-3.516-8.119-8.164Zm12.791 0c0-2.754-1.993-4.86-4.672-4.86-2.679 0-4.7 2.11-4.7 4.86 0 2.75 2.021 4.865 4.7 4.865 2.679 0 4.672-2.11 4.672-4.865ZM161.945 9.79v3.517h-.566c-2.973 0-4.727 1.865-4.727 4.742v7.587h-3.332v-15.6h3.332v2.296c1.133-1.59 2.734-2.536 4.727-2.536h.566V9.79ZM173.337 9.79v3.517h-.566c-2.973 0-4.727 1.865-4.727 4.742v7.587h-3.332v-15.6h3.332v2.296c1.132-1.59 2.734-2.536 4.727-2.536h.566V9.79ZM190.556 19.213h-12.285c.534 2.234 2.408 3.701 4.879 3.701 1.993 0 3.687-.98 4.552-2.139l2.26 1.988c-1.546 1.988-4.045 3.242-6.899 3.242-4.819 0-8.386-3.55-8.386-8.226 0-4.675 3.452-8.102 7.999-8.102 4.548 0 7.972 3.488 7.972 8.197 0 .43-.027.918-.087 1.344l-.005-.005Zm-12.312-2.816h8.832c-.506-2.2-2.259-3.639-4.432-3.639-2.172 0-3.866 1.467-4.4 3.64ZM192.936 17.836c0-4.647 3.479-8.163 8.119-8.163 3.033 0 5.592 1.528 6.959 3.885l-2.885 1.803a4.602 4.602 0 0 0-4.074-2.385c-2.679 0-4.699 2.11-4.699 4.86 0 2.75 2.02 4.865 4.699 4.865a4.596 4.596 0 0 0 4.074-2.385l2.885 1.803c-1.367 2.357-3.926 3.886-6.959 3.886-4.64 0-8.119-3.517-8.119-8.164v-.005ZM215.719 13.156v7.368c0 1.467.806 2.173 2.201 2.173.833 0 1.486-.246 2.08-.55v3.214c-.833.43-1.666.644-2.766.644-3.273 0-4.847-1.898-4.847-4.922v-7.927h-2.559v-3.12h2.559V6h3.332v4.037h4.286v3.119h-4.286Z"
        fill="#26C281" />
</svg>