<svg width="32" height="32" fill="none" xmlns="http://www.w3.org/2000/svg">
    <path
        d="M17.422 20.406A1.994 1.994 0 0 1 16 21a1.992 1.992 0 0 1-1.422-.594l-3.992-3.992a2 2 0 1 1 2.828-2.828L16 16.172 26.586 5.586l.813-.813A15.951 15.951 0 0 0 16 0C7.163 0 0 7.163 0 16s7.163 16 16 16 16-7.163 16-16c0-2.922-.784-5.662-2.153-8.019L17.422 20.406Z"
        fill="#26C281" />
    <path
        d="M26.586 5.586 16 16.172l-2.586-2.586a2 2 0 1 0-2.828 2.828l3.992 3.992c.362.366.865.594 1.422.594.557 0 1.059-.227 1.422-.594L29.847 7.981a16.032 16.032 0 0 0-2.449-3.207l-.813.813.001-.001Z"
        fill="#fff" />
</svg>