<svg width="18" height="18" viewBox="0 0 18 18" fill="none" xmlns="http://www.w3.org/2000/svg">
    <path
        d="M16 0H2C0.89 0 0 0.89 0 2V16C0 17.1 0.89 18 2 18H16C17.1 18 18 17.1 18 16V2C18 0.89 17.1 0 16 0ZM6 14H3.47998V7H6V14ZM4.68994 5.71997C3.91994 5.71997 3.41003 5.20002 3.41003 4.52002C3.41003 3.83002 3.92003 3.32007 4.78003 3.32007C5.55003 3.32007 6.06006 3.83002 6.06006 4.52002C6.06006 5.20002 5.54994 5.71997 4.68994 5.71997ZM15 14H12.5601V10.1699C12.5601 9.11992 11.91 8.87012 11.66 8.87012C11.42 8.87012 10.6 9.02992 10.6 10.1699C10.6 10.3399 10.6 14 10.6 14H8.07996V7H10.6V7.97998C10.93 7.40998 11.58 7 12.8 7C14.02 7 15 7.97992 15 10.1699V14Z"
        fill="#6F7170" />
</svg>