<svg width="22" height="22" fill="none" xmlns="http://www.w3.org/2000/svg">
    <path
        d="m2.495 14.95 1.468.23c1.083.17 1.857 1.162 1.777 2.28l-.108 1.515c-.032.442.204.858.593 1.05l1.086.535c.39.192.854.12 1.172-.18l1.091-1.031a2.067 2.067 0 0 1 2.85 0l1.091 1.031c.319.301.783.372 1.173.18l1.088-.536c.388-.191.622-.606.591-1.046l-.108-1.518c-.08-1.118.694-2.11 1.777-2.28l1.468-.23c.427-.066.772-.394.868-.826l.268-1.2a1.088 1.088 0 0 0-.431-1.129l-1.226-.858a2.179 2.179 0 0 1-.634-2.843l.74-1.317c.216-.383.18-.863-.09-1.209l-.75-.963a1.04 1.04 0 0 0-1.133-.359l-1.42.445c-1.049.328-2.167-.223-2.57-1.266l-.544-1.41a1.055 1.055 0 0 0-.983-.682l-1.203.004a1.053 1.053 0 0 0-.98.687l-.53 1.394c-.398 1.049-1.522 1.604-2.574 1.274l-1.478-.464a1.04 1.04 0 0 0-1.136.361l-.745.964c-.27.349-.303.83-.083 1.214l.757 1.319c.557.973.284 2.223-.625 2.859l-1.21.849c-.357.25-.529.698-.432 1.129l.268 1.2c.095.433.44.761.867.827Z"
        stroke="#BDE9D2" stroke-width="2" stroke-linecap="round" stroke-linejoin="round" />
    <path d="M13.121 8.879a3 3 0 1 1-4.242 4.242 3 3 0 0 1 4.242-4.242Z" stroke="#BDE9D2" stroke-width="2"
        stroke-linecap="round" stroke-linejoin="round" />
</svg>