<svg width="20" height="16" fill="none" xmlns="http://www.w3.org/2000/svg">
    <path
        d="M20 0c-.78.46-2.34 1.09-3.26 1.28-.03 0-.05.01-.08.02C15.85.5 14.73 0 13.5 0A4.5 4.5 0 0 0 9 4.5c0 .13-.01.37 0 .5-3.35 0-5.9-1.76-7.73-4-.2.5-.29 1.29-.29 2.03 0 1.4 1.09 2.78 2.8 3.63-.32.08-.66.14-1.02.14-.58 0-1.2-.15-1.76-.62v.05c0 1.96 2.08 3.3 3.93 3.67-.38.22-1.13.24-1.5.24-.26 0-1.18-.12-1.43-.17.51 1.61 2.37 2.51 4.14 2.54C4.75 13.6 3.79 14 .96 14H0c1.79 1.15 4.07 2 6.35 2C13.78 16 18 10.34 18 5v-.5c0-.03-.01-.05-.01-.08 0-.14 0-.26-.01-.33.79-.57 1.48-1.28 2.02-2.09-.73.32-1.5.54-2.32.64C18.51 2.14 19.7.94 20 0Z"
        fill="#6F7170" />
</svg>